<?xml version="1.0" standalone="no"?>
<!DOCTYPE svg PUBLIC "-//W3C//DTD SVG 20010904//EN"
 "http://www.w3.org/TR/2001/REC-SVG-20010904/DTD/svg10.dtd">
<svg version="1.0" xmlns="http://www.w3.org/2000/svg"
 width="780.000000pt" height="691.000000pt" viewBox="0 0 780.000000 691.000000"
 preserveAspectRatio="xMidYMid meet">

<g transform="translate(0.000000,691.000000) scale(0.100000,-0.100000)"
fill="#000000" stroke="none">
<path d="M3625 5615 c-50 -26 -93 -82 -105 -139 -8 -37 -11 -622 -8 -2136 3
-1948 4 -2088 20 -2123 23 -49 77 -102 120 -115 33 -10 746 -27 1155 -27 l223
0 25 26 c14 14 28 41 31 61 5 30 1 41 -24 69 l-30 34 -374 7 c-722 15 -937 23
-948 34 -8 8 -13 566 -17 2056 l-6 2045 22 22 21 21 1150 0 c633 0 1151 -1
1152 -2 0 -2 4 -154 7 -338 6 -319 7 -337 28 -376 12 -22 39 -56 61 -76 48
-43 59 -45 440 -54 218 -5 276 -9 288 -21 12 -12 14 -70 14 -345 0 -283 2
-329 14 -325 37 15 154 109 160 129 3 13 6 177 6 365 l0 343 -48 52 c-126 138
-782 788 -812 804 -34 18 -83 19 -1285 22 -1111 2 -1253 1 -1280 -13z m2854
-534 c135 -137 261 -261 280 -275 18 -15 31 -29 28 -32 -3 -3 -123 -2 -267 2
-236 6 -263 9 -286 26 -24 19 -24 21 -24 197 0 175 8 331 18 331 2 0 115 -112
251 -249z"/>
<path d="M1330 5071 c-72 -23 -125 -57 -181 -118 -53 -57 -75 -95 -100 -173
l-17 -55 -328 -6 c-194 -3 -342 -9 -360 -16 -125 -44 -221 -130 -282 -253
l-37 -75 -3 -1229 c-3 -1344 -6 -1258 53 -1376 50 -99 152 -184 269 -224 61
-21 64 -21 1541 -21 l1480 0 0 1595 0 1595 -304 5 -304 5 -23 67 c-47 139
-151 243 -284 282 -46 14 -126 16 -559 15 -455 0 -511 -2 -561 -18z m-673
-830 c50 -23 92 -82 100 -140 17 -123 -107 -234 -224 -203 -94 26 -149 102
-141 198 11 128 142 200 265 145z m1555 -87 c192 -49 352 -138 495 -277 143
-139 248 -319 300 -514 22 -85 26 -120 27 -258 1 -123 -3 -178 -18 -239 -97
-414 -402 -728 -811 -831 -494 -125 -1019 128 -1240 598 -122 258 -131 597
-24 869 70 178 213 362 369 475 263 190 592 255 902 177z"/>
<path d="M1835 3961 c-206 -34 -360 -113 -500 -255 -260 -265 -325 -651 -167
-990 124 -263 378 -448 671 -487 359 -48 722 147 886 476 58 118 85 217 92
342 24 420 -251 789 -667 897 -76 20 -243 28 -315 17z m249 -256 c66 -17 171
-67 213 -101 l28 -23 -215 -215 -214 -216 195 -197 c224 -227 279 -285 279
-295 0 -3 -17 -20 -37 -36 -138 -109 -318 -164 -460 -142 -247 40 -442 196
-525 422 -70 195 -35 393 103 571 82 106 218 194 359 231 73 19 202 20 274 1z"/>
<path d="M7505 4143 c-44 -25 -132 -75 -195 -111 -134 -76 -293 -181 -402
-265 -43 -33 -78 -61 -78 -63 0 -1 7 -10 16 -18 14 -15 14 -18 -8 -35 -21 -17
-24 -18 -32 -4 -6 12 -3 20 9 30 10 7 16 16 12 19 -15 16 -332 -284 -371 -351
-38 -65 -73 -230 -101 -475 -7 -62 -18 -89 -30 -71 -3 7 -12 70 -18 141 -6 78
-15 130 -21 130 -8 0 -8 3 0 8 12 8 6 92 -7 92 -5 0 -9 -5 -9 -11 0 -6 -24
-36 -53 -67 -79 -85 -149 -170 -232 -279 -40 -54 -82 -109 -93 -123 -22 -29
-47 -174 -62 -360 -9 -105 -17 -189 -19 -209 -1 -3 -5 -1 -11 5 -15 15 -80
328 -73 355 6 30 -102 -153 -164 -276 -163 -321 -212 -633 -152 -969 10 -58
10 -59 -27 -120 -54 -88 -185 -301 -275 -446 -43 -69 -90 -145 -105 -170 -80
-130 -87 -139 -139 -160 -173 -70 -379 -82 -611 -35 -136 28 -219 62 -559 230
-181 90 -368 179 -415 199 -603 246 -1156 246 -1630 -2 -103 -53 -253 -155
-280 -190 -11 -13 -20 -35 -20 -48 0 -27 36 -64 63 -64 10 0 76 33 145 73 230
132 292 159 482 210 140 38 268 50 448 44 338 -11 586 -92 1012 -332 321 -180
519 -255 760 -284 373 -47 701 47 980 281 52 44 80 79 140 179 155 258 253
414 264 421 6 4 36 8 66 8 110 0 289 36 410 82 91 34 320 162 320 179 0 3 -37
13 -82 23 -44 10 -127 31 -182 48 -116 34 -137 37 -153 26 -7 -6 -14 -4 -19 3
-4 8 -3 9 4 5 7 -4 12 -1 12 9 0 9 -4 13 -10 10 -5 -3 -10 1 -10 9 0 21 5 20
29 -5 12 -14 24 -18 33 -13 7 5 78 7 158 6 136 -3 150 -1 236 26 124 39 214
100 301 205 88 105 124 161 92 141 -8 -5 -10 3 -5 27 4 19 8 42 9 52 1 9 6 17
12 17 6 0 19 13 28 30 10 17 13 30 8 30 -6 0 -11 -7 -11 -15 0 -8 -8 -15 -18
-15 -10 0 -23 -5 -28 -10 -12 -12 -46 -2 -38 11 3 5 9 7 14 4 5 -3 11 -1 14 4
7 11 -39 20 -55 11 -6 -5 -25 -4 -40 2 -15 5 -62 8 -104 6 -41 -2 -75 0 -75 5
0 4 86 7 191 7 l190 -1 -27 -37 c-15 -20 -31 -39 -36 -42 -4 -4 -9 -136 -10
-294 l-3 -289 -25 -18 c-20 -15 -48 -20 -144 -24 l-119 -4 -46 -53 c-25 -29
-56 -61 -68 -72 -13 -11 -23 -23 -23 -28 0 -4 89 -8 198 -8 223 0 279 10 336
61 19 16 44 49 55 73 20 40 21 59 21 397 l0 354 -251 2 c-138 0 -253 4 -257 8
-12 12 21 23 172 60 193 46 251 68 312 114 37 28 49 43 48 63 0 17 4 24 13 21
10 -4 11 -9 2 -19 -6 -8 -8 -14 -3 -14 20 1 172 204 235 315 47 82 99 189 139
285 13 30 28 61 33 68 12 15 10 15 -45 -4 -58 -19 -417 -73 -424 -63 -6 10 -6
10 128 62 249 97 345 173 418 330 60 129 83 244 88 437 5 183 -6 287 -45 420
-14 47 -25 97 -25 113 0 15 0 27 -1 26 -1 -1 -38 -21 -82 -46z m69 -9 c5 -12
2 -15 -10 -10 -8 3 -18 6 -20 6 -3 0 -2 5 1 10 9 15 22 12 29 -6z m-63 -17
c-6 -8 -9 -16 -6 -19 3 -3 -13 -11 -35 -18 -45 -15 -50 -26 -17 -40 16 -6 17
-9 5 -9 -9 -1 -20 4 -23 9 -3 6 -16 9 -28 9 -17 -1 -18 -2 -4 -6 9 -2 15 -9
12 -14 -9 -13 47 -11 78 4 37 17 34 30 -4 22 -22 -5 -29 -4 -25 4 8 12 66 15
67 4 3 -28 10 -70 14 -80 8 -24 25 -13 25 17 0 17 -5 30 -11 30 -8 0 -7 5 2
16 11 13 8 19 -16 38 -24 19 -26 24 -12 29 26 10 47 -3 47 -28 0 -13 5 -25 11
-27 7 -2 12 -29 13 -65 0 -33 4 -57 7 -51 3 5 9 2 13 -7 9 -26 7 -42 -4 -25
-5 8 -10 13 -10 10 -1 -3 -3 -41 -6 -85 -4 -73 -3 -78 11 -61 8 11 15 27 14
35 0 11 -3 10 -9 -4 -5 -14 -7 -3 -6 32 0 29 3 48 5 42 2 -8 6 -8 11 1 4 7 7
0 7 -17 0 -15 3 -84 7 -153 5 -98 4 -117 -5 -90 -6 19 -9 53 -6 74 3 24 2 34
-3 26 -6 -10 -9 -9 -13 6 -4 18 -2 -9 7 -98 l5 -43 -10 45 c-20 85 -30 89 -23
10 3 -41 7 -77 10 -79 2 -2 10 1 17 7 11 9 13 2 14 -38 0 -37 -3 -50 -14 -50
-10 0 -11 -4 -3 -19 5 -11 10 -26 9 -33 0 -7 -5 0 -11 15 -15 41 -42 32 -46
-16 -2 -28 0 -37 12 -37 9 0 16 -6 17 -12 1 -7 5 -2 10 12 8 22 8 21 4 -8 -3
-18 -11 -39 -19 -47 -7 -8 -11 -25 -9 -39 3 -14 -2 -35 -11 -48 -11 -15 -16
-18 -16 -7 0 8 5 20 11 26 19 19 2 43 -28 42 -24 -2 -25 -2 -5 -6 12 -2 22 -9
22 -14 0 -6 -4 -7 -10 -4 -5 3 -10 -3 -10 -15 0 -12 -4 -19 -9 -16 -5 4 -7 -3
-4 -15 4 -13 8 -17 13 -9 5 8 9 7 14 -5 8 -21 -15 -75 -43 -99 -11 -11 -21
-24 -21 -31 0 -6 -16 -27 -36 -46 -34 -33 -36 -33 -50 -15 -7 11 -17 17 -21
13 -3 -4 1 -15 11 -26 14 -15 14 -19 3 -24 -8 -3 -20 0 -27 6 -10 9 -12 8 -7
-5 4 -12 -3 -21 -25 -33 -36 -18 -38 -18 -38 -6 0 5 9 11 21 14 20 5 20 6 2
25 -10 10 -22 17 -28 14 -5 -3 -5 1 2 8 6 7 25 13 42 14 17 0 31 2 31 3 0 18
-18 33 -39 33 -36 0 -51 -17 -51 -56 0 -28 3 -32 23 -27 18 4 19 3 7 -6 -19
-14 -67 -14 -75 -1 -4 6 -62 10 -141 10 l-134 0 2 -83 c2 -63 7 -88 21 -102
17 -18 17 -18 17 3 0 12 4 22 9 22 5 0 7 -8 4 -18 -7 -28 21 -45 59 -36 18 4
56 7 83 7 41 -1 44 0 20 6 -25 6 -16 9 46 15 42 4 92 11 112 16 24 5 38 4 42
-4 3 -8 7 -7 11 2 3 6 13 12 23 12 9 0 22 5 29 12 43 43 3 -59 -91 -236 -14
-25 -17 -27 -23 -13 -4 11 0 25 10 36 9 10 16 23 16 30 0 7 4 10 9 7 4 -3 8
27 7 67 l-1 72 -65 -4 c-79 -4 -108 -16 -65 -27 26 -6 27 -8 10 -15 -17 -6
-16 -8 8 -8 25 -1 27 -4 27 -45 0 -44 12 -66 25 -46 12 20 26 10 19 -12 -4
-13 -9 -34 -10 -48 -3 -36 -3 -36 -13 -22 -7 11 -9 10 -14 -3 -4 -10 -3 -14 4
-9 8 4 9 -1 4 -17 l-8 -24 22 25 c21 24 20 22 -3 -26 -13 -27 -32 -56 -40 -63
-9 -8 -16 -20 -16 -28 0 -8 -4 -11 -10 -8 -5 3 -10 -1 -10 -9 0 -9 -3 -15 -7
-15 -19 3 -27 -2 -16 -9 9 -6 7 -16 -10 -40 -25 -36 -32 -39 -41 -17 -4 11 0
15 12 13 11 -2 17 3 16 15 -1 9 2 17 7 17 5 0 4 11 -1 25 -6 16 -6 25 0 25 6
0 10 18 10 40 l0 40 -40 0 -40 0 0 -40 c0 -29 4 -40 15 -40 17 0 20 -16 5 -25
-6 -4 -8 -10 -5 -15 3 -4 -2 -10 -10 -13 -9 -4 -12 -1 -9 8 7 18 -22 50 -31
35 -4 -6 -4 -17 -2 -25 3 -7 -1 -16 -9 -19 -9 -3 -13 -10 -9 -15 3 -5 -4 -12
-15 -16 -24 -8 -26 -37 -5 -55 9 -7 13 -20 10 -28 -4 -12 -3 -13 9 -3 8 7 19
10 24 7 5 -3 18 2 28 10 14 11 16 17 6 21 -10 4 -10 8 -1 19 9 11 8 14 -2 14
-9 0 -10 3 -2 11 14 14 29 5 36 -20 3 -15 1 -18 -11 -14 -9 4 -13 2 -9 -4 10
-16 -3 -43 -20 -43 -9 0 -13 -6 -9 -15 4 -13 2 -14 -14 -5 -20 11 -21 10 -24
-11 0 -6 -9 -16 -18 -23 -19 -14 -25 -32 -8 -21 6 3 10 4 10 1 0 -8 -93 -61
-140 -80 -25 -10 -60 -18 -78 -18 -19 1 -30 -3 -27 -8 3 -6 -6 -11 -22 -12
-44 -2 -56 -4 -91 -12 -23 -6 -38 -4 -45 4 -9 10 -9 11 1 6 15 -9 72 2 72 13
0 5 -15 13 -32 19 l-33 11 33 -3 c20 -1 29 1 23 7 -6 6 -37 5 -83 -1 -65 -8
-68 -9 -25 -11 26 0 47 -5 47 -11 0 -9 -62 -30 -90 -30 -26 0 -60 -30 -60 -53
0 -13 3 -17 8 -11 4 6 17 14 29 18 19 6 18 3 -10 -26 -18 -19 -42 -35 -54 -36
-21 -2 -23 3 -23 46 0 33 3 43 10 32 16 -26 30 34 23 100 l-6 60 -38 0 c-37 0
-39 1 -39 33 0 26 -6 36 -25 45 -14 6 -25 17 -25 23 0 8 -6 7 -17 -2 -9 -8 -2
7 16 34 35 51 37 53 39 35 12 -88 12 -88 53 -88 39 0 39 0 39 39 0 43 -10 51
-56 45 -16 -2 -22 -1 -13 2 15 5 29 26 44 69 5 14 9 16 12 7 4 -10 9 -8 20 7
17 26 48 27 62 4 9 -16 10 -16 11 5 0 12 -4 22 -10 22 -5 0 -10 12 -10 26 0
16 4 23 12 18 6 -4 8 -3 5 3 -3 5 -2 26 3 46 4 21 4 37 -1 37 -5 0 -10 -15
-10 -32 -1 -19 -3 -25 -6 -15 -5 18 -5 18 -19 0 -19 -25 -17 -38 3 -22 14 12
16 12 11 -1 -2 -8 -11 -15 -19 -15 -18 0 -50 -39 -46 -57 2 -7 2 -10 0 -5 -8
12 -23 -3 -37 -37 -7 -18 -20 -33 -28 -33 -9 0 17 45 68 116 107 148 124 169
124 154 0 -7 5 -13 11 -13 8 0 7 5 -1 15 -11 13 -8 21 18 48 18 18 32 38 32
45 0 7 5 12 10 12 6 0 10 6 10 13 0 6 13 26 29 44 21 24 31 29 40 20 16 -16
44 13 35 36 -5 15 -9 15 -22 5 -9 -7 -6 2 7 20 12 17 25 32 28 32 3 0 0 -6 -6
-14 -9 -11 -9 -16 0 -21 6 -4 9 -19 5 -36 -4 -21 -2 -29 8 -29 9 0 13 -8 10
-22 l-5 -23 10 23 c6 12 15 22 21 22 5 0 10 17 10 38 0 20 5 44 10 52 7 12 11
8 16 -18 5 -24 9 -30 15 -20 5 7 6 22 2 33 -4 11 -6 32 -5 48 1 15 -3 27 -8
27 -6 0 -9 4 -5 10 3 5 11 7 18 4 12 -4 28 18 41 59 3 10 10 16 14 13 5 -3 8
9 7 26 -2 39 30 82 41 55 9 -24 27 -21 19 2 -5 16 -2 18 15 14 17 -5 20 -1 20
27 0 30 2 32 28 26 20 -5 23 -4 12 4 -9 6 -10 10 -3 10 6 0 14 9 18 19 5 16 9
17 30 7 14 -6 25 -17 25 -24 0 -16 42 -12 47 5 3 7 -3 9 -16 6 -18 -5 -21 -1
-21 26 0 18 5 31 13 32 10 0 10 2 0 6 -7 2 -13 9 -13 15 0 6 7 8 15 4 11 -4
15 1 15 19 0 13 -4 26 -10 30 -5 3 -6 13 -3 22 4 10 2 14 -4 10 -7 -5 -9 0 -6
13 7 26 23 15 23 -16 0 -21 4 -24 40 -24 l40 0 0 40 0 40 -101 -2 c-55 -1 -92
-5 -82 -9 10 -3 23 -4 28 -1 6 3 -19 -24 -54 -61 -40 -41 -68 -63 -72 -56 -5
8 -8 8 -13 0 -4 -6 -5 -15 -1 -20 3 -5 0 -13 -6 -17 -8 -5 -9 -3 -4 7 7 11 6
12 -7 2 -8 -7 -19 -9 -24 -5 -4 4 -3 0 4 -9 11 -14 9 -22 -14 -45 l-26 -29 17
29 c16 26 16 30 1 44 -12 12 -16 13 -16 3 0 -11 -3 -11 -17 0 -16 13 -17 12
-5 -3 11 -13 11 -21 1 -40 -11 -21 -11 -22 4 -9 21 17 21 4 1 -29 -8 -14 -13
-17 -10 -7 3 9 1 17 -4 17 -6 0 -10 -7 -10 -16 0 -9 -9 -29 -21 -45 -15 -22
-24 -27 -33 -20 -7 6 -16 8 -19 4 -4 -3 -7 -2 -7 3 0 5 13 24 29 42 17 17 27
32 23 32 -4 0 -18 3 -32 7 -22 6 -23 5 -12 -10 19 -22 3 -50 -19 -34 -8 7 -18
20 -22 30 -8 20 -39 20 -43 -1 -1 -7 0 -8 3 -2 2 5 11 10 19 10 14 0 16 -7 17
-61 1 -22 6 -26 27 -25 14 0 25 -3 25 -9 0 -5 -11 -10 -25 -10 -15 0 -26 -6
-28 -17 -2 -10 2 -18 8 -18 6 0 9 4 6 9 -3 5 1 11 9 15 8 3 17 1 20 -4 4 -6 2
-10 -2 -10 -5 0 -26 -21 -46 -47 -68 -87 -105 -125 -103 -106 0 10 -7 19 -19
21 -11 2 -24 9 -28 16 -5 6 -7 -2 -5 -20 3 -23 0 -30 -14 -31 -10 -1 -18 5
-18 13 0 8 5 14 10 14 6 0 10 7 10 15 0 8 -4 15 -10 15 -5 0 -10 18 -10 39 0
33 -4 40 -22 43 -18 2 -23 9 -21 31 2 36 -13 35 -20 -3 -8 -40 -27 -38 -28 3
-1 19 -3 24 -6 12 -13 -59 -29 -60 -17 0 4 22 11 34 18 32 9 -4 12 11 10 52
-1 31 0 50 3 44 7 -19 20 -16 26 7 3 11 12 20 21 20 9 0 16 -8 16 -20 0 -11 4
-20 9 -20 5 0 12 -12 14 -27 2 -16 5 0 6 35 0 40 -3 61 -9 57 -9 -6 -14 8 -11
28 2 12 -17 8 -21 -5 -3 -7 -9 -8 -18 -3 -10 6 -9 11 5 21 19 14 29 67 10 56
-5 -3 -4 2 4 12 11 13 16 14 24 4 6 -9 7 -7 3 6 -5 14 9 34 60 83 36 35 70 60
76 57 6 -4 8 -2 4 4 -3 6 8 22 26 36 18 14 35 21 36 16 7 -18 23 -10 20 10 -2
10 1 18 7 17 16 -3 14 -25 -5 -42 -10 -9 -24 -14 -30 -10 -6 3 -9 1 -8 -7 5
-23 28 -39 50 -35 23 4 23 4 -2 15 -19 8 -21 11 -7 11 10 1 16 5 12 11 -3 5 7
5 25 -2 18 -6 34 -17 37 -25 4 -10 9 -11 18 -3 15 13 8 50 -10 50 -7 0 -18 7
-25 15 -12 15 -4 20 22 16 4 0 5 6 2 14 -5 11 -2 14 12 8 18 -6 18 -5 3 13
-22 26 -36 53 -20 38 6 -6 25 -8 41 -6 26 4 29 7 18 20 -11 13 -11 14 0 8 8
-5 25 -3 39 5 22 12 27 11 38 -4 13 -18 55 -24 55 -7 0 6 -9 10 -19 10 -26 0
-33 13 -25 43 5 22 11 24 42 22 33 -2 33 -2 7 4 -32 7 -27 14 19 25 20 5 32 3
38 -6 5 -8 6 0 3 20 -4 25 -2 32 7 26 10 -5 10 -4 2 5 -13 14 -44 4 -44 -14 0
-8 -10 -17 -22 -21 -23 -7 -40 -19 -66 -46 -9 -10 -22 -18 -28 -18 -6 0 -17
-7 -24 -15 -11 -13 -10 -14 6 -9 14 5 16 4 8 -5 -6 -6 -18 -9 -28 -5 -15 6
-15 9 6 31 13 14 32 29 43 34 11 5 58 36 105 68 77 53 110 65 110 39 0 -5 -8
-7 -17 -4 -10 3 -25 1 -33 -5 -12 -8 -9 -9 10 -4 24 6 24 5 6 -9 -28 -23 -6
-19 24 3 20 16 22 21 11 35 -11 13 -11 16 0 17 8 0 23 3 34 6 11 3 30 5 43 5
16 0 22 5 18 14 -3 8 1 14 9 14 8 0 15 -7 15 -15 0 -8 8 -15 18 -15 12 0 14 3
4 8 -9 6 -5 12 13 22 14 7 25 19 25 27 0 7 8 13 18 13 15 1 15 2 -2 15 -18 14
-16 16 40 42 32 15 65 33 72 40 18 17 28 17 13 0z m-151 -87 c0 -5 -2 -10 -4
-10 -3 0 -8 5 -11 10 -3 6 -1 10 4 10 6 0 11 -4 11 -10z m-21 -37 c-7 -7 -20
-11 -31 -7 -10 3 -30 -2 -44 -11 -14 -9 -28 -15 -30 -12 -11 11 63 46 87 41
13 -2 18 -2 12 2 -7 3 -13 10 -13 16 0 6 6 5 15 -2 12 -10 13 -16 4 -27z
m-444 -273 c-3 -5 -11 -10 -16 -10 -6 0 -7 5 -4 10 3 6 11 10 16 10 6 0 7 -4
4 -10z m238 -327 c-21 -26 -84 -106 -138 -178 -104 -136 -108 -141 -148 -190
-20 -25 -83 -108 -267 -355 -44 -59 -225 -310 -266 -370 -46 -66 -166 -243
-185 -270 -5 -8 -36 -55 -67 -105 -62 -96 -91 -142 -222 -355 -46 -74 -96
-155 -112 -179 -15 -25 -28 -49 -28 -54 0 -11 -81 0 -94 13 -17 17 244 498
393 720 56 82 134 194 141 200 3 3 23 30 45 60 54 75 246 323 259 335 6 6 40
46 76 90 57 71 176 212 190 225 3 3 15 18 27 33 34 44 156 177 292 319 81 84
128 125 134 119 6 -6 -4 -26 -30 -58z m37 -3 c0 -5 -4 -10 -10 -10 -5 0 -10 5
-10 10 0 6 5 10 10 10 6 0 10 -4 10 -10z m-650 -19 c0 -5 -9 -12 -19 -16 -12
-4 -18 -12 -14 -21 3 -9 -1 -14 -12 -14 -17 0 -14 11 13 43 16 19 32 23 32 8z
m670 -12 c0 -5 -3 -9 -7 -10 -41 -4 -63 -3 -63 2 0 10 19 16 48 16 12 0 22 -3
22 -8z m-24 -40 c4 -7 0 -9 -12 -5 -25 7 -40 -3 -53 -37 -6 -15 -22 -32 -36
-37 -15 -6 -25 -17 -25 -30 0 -11 -4 -20 -10 -20 -14 0 -6 43 8 48 7 2 12 8
12 14 0 5 11 24 24 41 25 33 78 48 92 26z m-686 -37 c0 -13 -2 -14 -9 -4 -12
19 -20 -5 -15 -44 2 -16 1 -21 -2 -11 -3 9 -10 15 -15 12 -12 -8 -12 -3 6 39
15 36 35 41 35 8z m450 -2 c0 -5 -4 -10 -10 -10 -5 0 -10 5 -10 10 0 6 5 10
10 10 6 0 10 -4 10 -10z m-499 -121 c-8 -38 -9 -40 -10 -12 -1 17 2 39 5 48
11 29 14 10 5 -36z m-159 -78 c-6 -14 -7 -14 -10 2 -3 14 -7 16 -18 6 -7 -6
-11 -15 -8 -20 3 -5 -4 -18 -16 -27 -22 -18 -22 -19 -4 -36 17 -18 17 -18 -4
-12 -30 10 -65 -2 -58 -20 10 -25 -5 -45 -28 -39 -17 5 -18 4 -6 -4 8 -6 13
-11 10 -12 -48 -9 -48 -5 -3 48 26 30 52 52 59 49 8 -3 11 0 8 8 -3 8 5 21 18
30 12 9 18 16 13 16 -4 0 2 11 15 25 25 26 44 18 32 -14z m660 -1 c-12 -16
-22 -33 -22 -38 0 -11 -50 -46 -56 -39 -2 2 6 15 19 28 13 13 34 39 46 57 13
18 26 31 29 27 3 -3 -4 -19 -16 -35z m-516 -7 c-11 -11 -17 4 -9 23 7 18 8 18
11 1 2 -10 1 -21 -2 -24z m-136 -44 c0 -11 -4 -17 -10 -14 -5 3 -10 13 -10 21
0 8 5 14 10 14 6 0 10 -9 10 -21z m-26 -62 c-1 -41 1 -47 3 -19 2 23 9 42 15
42 6 0 8 -10 4 -22 -3 -13 -6 -39 -6 -58 0 -26 -3 -31 -10 -20 -5 8 -10 11
-10 7 0 -13 -24 15 -40 48 -24 49 -24 51 -3 33 11 -10 23 -18 26 -18 12 0 8
45 -5 59 -10 11 -10 13 0 7 7 -4 12 -2 12 5 0 7 3 9 7 5 4 -4 7 -35 7 -69z
m143 -37 c-5 -47 -4 -58 7 -54 9 3 15 -4 18 -20 4 -17 1 -26 -8 -26 -7 0 -14
8 -16 18 -3 14 -5 13 -10 -6 -3 -12 -3 -20 2 -17 6 4 7 -37 1 -65 -1 -3 -17
-6 -36 -7 -30 -1 -32 1 -20 14 8 8 20 11 26 7 7 -4 9 -3 5 4 -3 6 0 44 9 84 8
40 15 85 15 101 0 15 3 27 6 27 4 0 4 -27 1 -60z m480 44 c4 -10 0 -20 -10
-26 -10 -5 -17 -16 -17 -25 0 -14 -2 -15 -12 -4 -11 10 -9 15 6 26 11 8 16 21
13 30 -4 8 -2 15 4 15 5 0 12 -7 16 -16z m-52 -40 c-10 -20 -15 -24 -15 -11 0
23 22 65 27 51 2 -6 -3 -24 -12 -40z m395 26 c0 -5 -4 -10 -10 -10 -5 0 -10 5
-10 10 0 6 5 10 10 10 6 0 10 -4 10 -10z m70 -15 c0 -5 -79 -42 -130 -61 -38
-15 -56 -10 -19 5 16 7 19 10 7 10 -9 1 -23 -7 -30 -17 -16 -22 -57 -46 -66
-38 -3 4 -6 15 -7 26 -1 15 2 17 16 9 25 -13 33 -11 21 4 -11 12 -7 13 75 20
17 1 44 12 59 25 24 19 74 31 74 17z m-1127 -62 c-5 -43 -9 -53 -24 -53 -27 0
-25 53 3 85 12 14 22 24 24 22 1 -1 -1 -26 -3 -54z m124 5 c-2 -13 -4 -5 -4
17 -1 22 1 32 4 23 2 -10 2 -28 0 -40z m333 19 c0 -7 -13 -25 -28 -40 l-28
-27 2 28 c2 40 3 42 16 42 9 0 9 -3 0 -12 -20 -20 -13 -32 8 -13 11 10 17 22
14 26 -3 5 0 9 5 9 6 0 11 -6 11 -13z m-126 -4 c-5 -5 -11 -11 -14 -15 -3 -3
-14 0 -24 8 -19 13 -18 14 14 14 18 0 29 -3 24 -7z m-415 -30 c0 -25 -1 -25
-8 -8 -5 11 -7 23 -4 28 8 14 13 7 12 -20z m-19 -21 c0 -10 -8 -18 -20 -19
-17 -2 -18 1 -7 18 15 24 27 25 27 1z m715 -1 c-3 -6 -11 -11 -17 -11 -6 0 -6
6 2 15 14 17 26 13 15 -4z m-514 -56 l-20 -50 2 51 c1 37 6 50 15 47 6 -3 12
1 13 8 0 8 2 10 5 4 2 -5 -5 -32 -15 -60z m43 -36 c-6 -10 -44 -13 -44 -4 0 3
4 13 9 23 6 9 13 31 17 47 7 30 7 29 15 -14 5 -24 6 -48 3 -52z m212 50 c-15
-11 -26 -25 -26 -31 0 -6 8 -1 19 10 10 12 22 22 26 22 5 0 -1 -10 -12 -22
-11 -13 -24 -31 -29 -40 -7 -13 -10 -6 -12 31 -2 47 -1 48 29 49 l30 1 -25
-20z m-454 -51 c15 -15 15 -18 3 -18 -8 0 -18 -12 -21 -27 -9 -38 -33 -63 -60
-63 -22 0 -24 9 -10 41 4 8 3 26 -2 38 l-8 23 -12 -27 c-11 -24 -11 -27 4 -21
14 5 15 4 4 -9 -37 -45 -35 8 3 62 27 39 31 41 56 30 14 -7 34 -20 43 -29z
m1215 26 c-3 -3 -12 -4 -19 -1 -8 3 -5 6 6 6 11 1 17 -2 13 -5z m80 0 c-3 -3
-12 -4 -19 -1 -8 3 -5 6 6 6 11 1 17 -2 13 -5z m-29 -21 c-10 -2 -26 -2 -35 0
-10 3 -2 5 17 5 19 0 27 -2 18 -5z m-858 -32 c0 -8 -3 -11 -7 -8 -8 8 -33 -11
-33 -25 0 -6 7 -4 17 3 15 13 15 12 3 -8 -8 -12 -17 -20 -21 -17 -4 2 -10 -2
-13 -8 -3 -7 -3 1 1 17 3 17 10 36 16 43 6 7 6 12 0 12 -6 0 -15 -10 -21 -22
-11 -23 -11 -23 -9 3 1 22 6 25 34 25 22 -1 33 -6 33 -15z m-210 -6 c0 -8 -4
-15 -10 -15 -5 0 -10 7 -10 15 0 8 5 15 10 15 6 0 10 -7 10 -15z m-344 -102
c-4 -105 0 -113 45 -113 39 0 39 0 39 40 0 36 3 40 25 40 14 0 25 5 25 10 0 6
7 10 15 10 8 0 15 -4 15 -10 0 -5 18 -10 40 -10 l40 0 0 -40 0 -40 -40 0 -40
0 0 -40 c0 -40 0 -40 40 -41 22 -1 46 -2 53 -3 7 -1 12 -16 12 -41 0 -34 -3
-40 -20 -37 -15 2 -17 1 -6 -6 11 -8 10 -13 -5 -30 -11 -11 -27 -32 -37 -46
-17 -25 -37 -27 -37 -5 0 6 6 7 13 3 7 -5 6 0 -3 11 -14 16 -13 17 8 11 27 -9
29 5 2 22 -17 10 -20 10 -20 -3 0 -9 -12 -20 -26 -25 -46 -18 -54 -13 -54 30
l0 40 -50 0 -50 0 1 43 2 42 7 -40 c9 -51 12 -12 4 49 -5 33 -10 43 -16 34 -5
-8 -7 18 -4 67 4 61 3 71 -4 40 -5 -22 -9 -58 -10 -80 -1 -22 -6 -49 -11 -60
-10 -23 -5 35 13 150 8 53 13 65 19 50 8 -18 9 -17 8 5 -1 31 0 40 5 40 2 0 3
-30 2 -67z m432 48 c10 -6 9 -11 -4 -22 -16 -13 -17 -12 -11 6 6 16 3 15 -13
-5 -19 -24 -20 -24 -20 -3 0 18 10 30 30 32 3 0 11 -3 18 -8z m45 -7 c3 -4 -5
-16 -19 -26 -14 -11 -27 -18 -30 -15 -3 3 4 10 15 17 12 6 19 15 16 21 -7 10
8 13 18 3z m-59 -75 c-12 -20 12 -7 34 19 13 15 9 6 -8 -20 -31 -45 -60 -68
-60 -48 0 6 -7 10 -15 10 -8 0 -15 9 -15 20 0 12 6 20 13 19 38 -5 47 1 42 29
-5 26 -5 26 5 4 5 -13 8 -28 4 -33z m-64 -69 c7 -12 16 -18 23 -13 7 4 1 -7
-13 -23 -14 -17 -27 -27 -29 -21 -2 5 2 13 9 17 9 6 8 14 -5 34 -10 15 -13 26
-7 26 6 0 16 -9 22 -20z m-548 -173 c-2 -5 2 -20 9 -34 12 -22 11 -26 -4 -34
-14 -8 -16 -19 -11 -52 4 -31 3 -38 -5 -27 -16 22 -13 66 5 84 8 9 12 21 9 27
-5 6 -11 4 -19 -7 -9 -12 -15 -14 -20 -6 -4 7 -2 12 3 12 6 0 11 5 11 10 0 7
-7 7 -21 -1 -14 -7 -19 -17 -16 -30 3 -10 1 -17 -4 -13 -5 3 -9 12 -9 20 0 9
-5 12 -12 8 -7 -4 -2 10 11 32 13 21 31 51 40 66 l16 27 11 -37 c6 -20 9 -41
6 -45z m165 51 c-3 -7 -5 -2 -5 12 0 14 2 19 5 13 2 -7 2 -19 0 -25z m331 1
c-12 -16 -24 -27 -26 -24 -3 2 1 11 7 19 7 8 10 19 8 23 -3 5 3 9 14 10 18 2
18 0 -3 -28z m-338 -64 c0 -8 -4 -15 -10 -15 -5 0 -7 7 -4 15 4 8 8 15 10 15
2 0 4 -7 4 -15z m1174 -20 c3 -8 1 -15 -4 -15 -6 0 -10 7 -10 15 0 8 2 15 4
15 2 0 6 -7 10 -15z m-1193 -22 c0 -5 2 -27 5 -50 4 -36 2 -44 -17 -54 -19
-10 -21 -9 -16 6 4 9 7 37 7 61 0 24 5 44 10 44 6 0 10 -3 11 -7z m-226 -13
c3 -5 1 -10 -4 -10 -6 0 -11 5 -11 10 0 6 2 10 4 10 3 0 8 -4 11 -10z m120
-88 c-8 -9 -13 1 -19 43 l-6 40 15 -39 c8 -22 13 -42 10 -44z m225 62 c0 -11
6 -15 18 -12 10 3 24 -2 31 -9 7 -8 24 -13 36 -11 20 4 19 0 -18 -54 -22 -32
-41 -58 -43 -58 -1 0 -3 8 -3 18 0 9 -4 35 -8 57 -7 34 -12 40 -36 43 -21 3
-29 -2 -35 -19 -12 -32 -25 -7 -17 31 6 26 11 30 41 30 25 0 34 -4 34 -16z
m355 -33 c-4 -17 -10 -29 -14 -26 -5 2 -6 -6 -4 -19 4 -19 1 -23 -17 -22 -35
2 -44 39 -18 72 20 25 22 26 35 8 12 -17 13 -16 13 6 0 13 3 21 6 17 3 -3 3
-19 -1 -36z m-752 -38 c-27 -52 -36 -113 -17 -113 8 0 14 7 14 15 0 8 5 15 10
15 16 0 12 -27 -5 -34 -11 -4 -15 -22 -16 -63 -1 -32 -4 -45 -6 -30 -4 22 -7
26 -18 17 -9 -8 -14 -6 -19 6 -3 9 -4 20 0 25 3 5 1 9 -4 9 -14 0 -21 -48 -8
-55 8 -3 7 -7 -1 -11 -7 -3 -9 -12 -6 -20 4 -10 0 -12 -12 -8 -22 9 -15 49 22
124 15 30 26 59 25 63 -3 10 51 107 56 102 3 -2 -4 -21 -15 -42z m104 15 c-3
-7 -5 -2 -5 12 0 14 2 19 5 13 2 -7 2 -19 0 -25z m-92 -52 c0 -13 -4 -28 -8
-32 -4 -5 -5 0 -1 10 5 14 4 17 -4 12 -16 -9 -15 7 0 22 7 7 12 12 13 12 0 0
1 -11 0 -24z m182 -38 c-7 -4 2 -8 20 -8 17 0 34 6 36 13 3 6 6 -9 6 -35 l1
-48 -40 0 -40 0 2 72 c2 68 3 71 14 43 9 -23 9 -32 1 -37z m490 40 c-2 -7 -12
-12 -21 -12 -18 2 -18 1 -10 -19 5 -15 44 -12 44 3 0 4 9 10 20 13 13 3 20 0
20 -9 0 -10 14 -14 50 -14 45 0 50 -2 50 -22 -1 -46 -22 -58 -100 -58 -60 0
-73 3 -76 18 -3 9 -4 21 -4 25 1 5 -9 17 -21 28 -12 10 -17 19 -11 19 6 0 14
9 17 20 4 11 15 20 27 20 11 0 18 -5 15 -12z m-627 -28 c0 -5 -4 -10 -10 -10
-5 0 -10 5 -10 10 0 6 5 10 10 10 6 0 10 -4 10 -10z m280 1 c0 -11 -26 -22
-34 -14 -12 12 -5 23 14 23 11 0 20 -4 20 -9z m35 -71 c3 0 3 14 1 30 -3 30
-3 30 15 14 17 -15 17 -19 5 -33 -8 -9 -22 -30 -33 -48 l-19 -32 0 39 c0 34 1
37 13 22 11 -15 12 -13 3 11 -5 16 -10 36 -9 45 0 9 5 2 10 -15 5 -18 12 -33
14 -33z m265 24 c0 -10 -6 -14 -15 -10 -16 6 -21 -9 -6 -18 18 -11 -4 -61 -28
-64 -15 -3 -21 -8 -17 -18 3 -9 1 -12 -4 -9 -6 3 -10 2 -10 -4 0 -12 -28 -41
-41 -41 -18 0 -9 18 12 23 12 3 18 10 14 16 -3 6 -11 9 -16 6 -5 -4 -6 2 -2
11 4 11 8 13 11 6 8 -25 24 -11 18 16 -5 21 -4 24 4 12 9 -12 10 -12 8 5 -3
23 40 84 60 84 6 1 12 -6 12 -15z m424 -33 c6 -9 -64 -24 -72 -16 -5 5 36 23
55 24 6 1 14 -3 17 -8z m-324 -133 l0 -39 215 3 c167 2 214 6 210 16 -4 11 1
13 23 11 4 0 6 -7 4 -15 -2 -8 4 -14 13 -14 8 0 15 5 15 11 0 5 5 7 10 4 7 -4
7 -12 0 -25 -16 -30 -12 -34 9 -9 l18 23 -7 -47 c-4 -25 -3 -48 1 -49 4 -2 -1
-14 -12 -28 -12 -14 -18 -20 -15 -13 9 17 -16 53 -36 53 -14 0 -18 -8 -18 -39
0 -33 4 -40 21 -43 21 -3 21 -3 -2 -23 l-22 -20 7 20 c7 19 6 19 -11 2 -14
-14 -15 -19 -5 -26 10 -6 10 -10 -1 -19 -12 -10 -14 -6 -11 23 1 19 -1 47 -6
62 -7 25 -8 25 -9 6 -1 -19 -7 -23 -36 -23 -34 0 -35 -1 -35 -40 0 -22 5 -40
11 -40 6 0 7 -5 2 -12 -4 -7 -8 -23 -8 -35 -1 -17 2 -20 13 -11 10 9 10 13 0
19 -7 4 -9 11 -5 16 5 4 13 1 18 -7 9 -13 10 -12 6 2 -7 20 22 33 37 18 8 -8
6 -9 -8 -4 -12 5 -17 4 -13 -3 9 -14 -51 -73 -69 -66 -8 3 -14 12 -14 20 0 8
5 11 10 8 6 -3 10 -1 10 5 0 5 -13 9 -29 8 -19 -1 -27 -7 -24 -15 3 -7 8 -11
12 -9 4 3 12 -4 18 -14 11 -16 10 -17 -18 -7 -25 10 -29 17 -29 49 0 38 0 38
-40 38 l-40 0 0 40 0 40 -40 0 -40 0 0 -40 0 -40 -80 0 -80 0 0 40 0 40 -80 0
c-50 0 -80 4 -80 11 0 5 -4 7 -10 4 -5 -3 -10 -11 -10 -16 0 -6 5 -7 10 -4 6
4 10 -10 10 -34 l0 -41 -45 0 c-25 0 -45 3 -45 6 0 9 41 74 46 74 3 0 3 -4 -1
-9 -3 -5 -1 -12 4 -15 16 -10 25 75 10 86 -10 6 -7 7 9 3 30 -8 28 9 -3 29
-32 21 -31 38 1 84 19 27 24 31 19 13 -5 -16 -4 -21 4 -17 6 4 19 2 28 -4 15
-9 12 -10 -15 -7 -37 4 -45 -2 -30 -23 8 -12 8 -11 3 5 -5 15 -3 17 6 8 17
-17 1 -37 -17 -22 -24 19 -15 -5 10 -28 16 -15 36 -23 60 -23 36 0 36 0 36 43
0 24 -6 49 -12 55 -9 9 -10 15 -2 20 6 4 13 15 17 24 6 18 46 25 115 19 42 -3
42 -3 42 -43z m-780 -8 c0 -27 -7 -47 -24 -64 -29 -32 -38 -33 -30 -2 3 13 1
27 -5 30 -6 4 -11 13 -11 19 0 7 4 6 10 -3 8 -12 10 -10 11 10 l1 25 8 -25 8
-25 1 27 c2 66 31 74 31 8z m304 33 c-5 -15 -3 -15 11 2 17 20 17 20 10 -2 -3
-13 -2 -23 4 -23 9 0 -6 -28 -64 -125 -14 -22 -32 -55 -41 -73 -14 -28 -19
-31 -26 -18 -12 22 -29 20 -22 -1 5 -15 3 -15 -10 1 -20 24 -20 10 -1 -24 8
-14 14 -19 15 -11 0 8 3 11 7 7 5 -4 0 -14 -11 -21 -10 -8 -15 -19 -10 -26 5
-8 3 -10 -5 -4 -7 4 -11 15 -8 25 4 14 0 17 -15 15 -17 -4 -19 0 -14 18 4 12
9 43 13 70 6 45 5 47 -20 47 -22 0 -26 -6 -32 -40 -9 -51 -21 -51 -30 0 -4 22
-11 43 -16 46 -12 7 -2 43 17 61 15 16 198 17 188 2 -8 -13 10 -11 24 3 9 9
12 9 12 0 0 -7 -4 -12 -10 -12 -5 0 -10 -7 -10 -15 0 -8 -4 -15 -10 -15 -5 0
-10 5 -10 11 0 5 -5 7 -12 3 -9 -6 -9 -9 0 -12 7 -2 12 -8 12 -14 0 -5 -6 -8
-12 -6 -7 3 -18 -1 -25 -8 -15 -15 -17 -38 -3 -29 6 4 8 -7 4 -30 -4 -25 -2
-35 5 -30 6 3 11 17 11 30 0 34 10 56 24 48 6 -3 8 -3 4 2 -4 4 8 26 27 48 19
22 35 44 35 48 0 14 -24 23 -28 11 -5 -17 -32 -15 -32 3 0 8 7 15 15 15 8 0
15 9 15 20 0 11 7 20 15 20 9 0 12 -6 9 -17z m49 2 c-3 -9 -8 -14 -10 -11 -3
3 -2 9 2 15 9 16 15 13 8 -4z m822 -25 c4 -6 -23 -10 -74 -10 -47 0 -81 4 -81
10 0 6 31 10 74 10 41 0 78 -4 81 -10z m-1278 -112 c-3 -8 -6 -5 -6 6 -1 11 2
17 5 13 3 -3 4 -12 1 -19z m-8 -100 c-7 -18 -13 -83 -13 -169 -1 -100 -3 -129
-9 -102 -5 21 -5 88 -1 148 4 61 7 118 8 127 0 9 4 14 8 12 4 -3 9 12 9 33 2
32 3 33 6 9 3 -15 -1 -42 -8 -58z m571 78 c0 -2 -7 -9 -15 -16 -13 -11 -14
-10 -9 4 5 14 24 23 24 12z m22 -32 c-3 -28 -8 -35 -22 -31 -13 3 -16 -1 -13
-22 3 -26 3 -26 -11 3 l-13 29 -12 -33 c-6 -18 -14 -30 -18 -26 -12 12 28 75
43 69 8 -3 14 1 14 8 0 11 3 11 10 -1 8 -12 10 -9 10 13 0 15 4 27 8 27 4 0 6
-16 4 -36z m-402 -78 c0 -8 7 -19 15 -26 10 -9 12 -17 6 -23 -14 -14 -41 17
-41 48 0 15 4 24 10 20 6 -3 10 -12 10 -19z m-183 -18 c-3 -8 -6 -5 -6 6 -1
11 2 17 5 13 3 -3 4 -12 1 -19z m494 -4 c11 -13 10 -15 -6 -12 -10 1 -20 -3
-23 -11 -3 -8 0 -11 6 -7 6 4 10 -6 9 -26 -1 -18 -6 -31 -12 -28 -5 3 -9 16
-7 30 3 24 3 24 -11 5 -16 -22 -12 -85 5 -85 17 0 0 -61 -28 -104 -15 -22 -26
-50 -26 -64 0 -14 -4 -19 -8 -13 -5 9 -10 8 -19 -2 -9 -12 -7 -16 9 -20 15 -4
20 -13 20 -41 l0 -36 -120 0 -120 0 0 35 0 35 64 0 c62 0 96 13 59 23 -14 4
-13 5 5 6 12 0 22 5 22 11 0 5 -7 7 -15 4 -12 -5 -12 -2 1 25 17 34 29 42 19
12 -3 -11 -2 -22 4 -25 13 -9 22 23 12 43 -7 12 -4 24 10 41 13 18 19 20 19
10 0 -9 -5 -21 -11 -27 -12 -12 -4 -33 12 -33 6 0 7 5 4 10 -3 6 -3 15 1 21 5
8 9 8 14 -1 4 -7 10 0 13 19 5 25 12 31 32 31 30 0 34 25 6 40 -28 15 -44 12
-37 -6 3 -9 0 -24 -8 -35 -11 -16 -15 -17 -19 -5 -4 11 99 196 109 196 1 0 7
-7 15 -16z m-491 -110 c0 -52 -3 -93 -8 -91 -4 3 -6 31 -5 64 1 32 2 73 3 91
0 17 2 32 5 32 3 0 5 -43 5 -96z m244 22 c-19 -40 -40 -49 -30 -13 3 12 6 25
6 30 0 4 7 7 15 7 9 0 12 6 8 18 -4 13 -3 14 6 6 9 -9 8 -19 -5 -48z m-53 -13
c6 -56 2 -76 -25 -130 -17 -34 -34 -63 -38 -63 -13 0 -1 54 13 59 21 6 25 17
23 63 -1 27 1 36 7 27 13 -21 12 7 -1 32 -8 15 -7 19 5 19 8 0 15 -3 16 -7z
m941 -4 c10 0 20 -4 23 -10 9 -14 -45 -10 -85 7 l-35 14 40 -5 c22 -3 48 -5
57 -6z m-7 -39 c-3 -5 -12 -10 -18 -10 -7 0 -30 -9 -52 -20 -62 -31 -74 -23
-14 9 54 29 96 40 84 21z m-484 -46 c-17 -7 -31 -16 -31 -19 0 -3 6 -3 13 2 6
4 69 6 140 4 92 -2 127 0 127 9 0 8 -28 10 -102 6 l-103 -5 90 10 c95 11 170
5 144 -12 -16 -10 1 -12 26 -3 13 5 14 8 3 15 -9 6 -6 9 11 9 24 0 24 0 6 -20
-18 -19 -30 -21 -179 -19 -108 0 -162 -3 -164 -10 -2 -6 -8 -11 -13 -11 -6 0
-8 4 -5 9 4 5 -5 18 -19 28 l-25 18 56 1 c55 1 56 1 25 -12z m-541 -19 c0 -8
-4 -15 -10 -15 -5 0 -10 7 -10 15 0 8 5 15 10 15 6 0 10 -7 10 -15z m-2 -65
c-7 -10 -14 -18 -15 -16 -6 6 9 36 18 36 5 0 4 -9 -3 -20z m-98 -150 c1 -114
-2 -152 -9 -145 -2 3 -12 -2 -21 -10 -32 -29 -31 9 0 58 27 43 28 49 20 110
-5 35 -12 71 -16 81 -3 9 -3 28 1 44 l8 27 8 -30 c5 -16 9 -77 9 -135z m692
135 c48 -15 55 -20 43 -31 -7 -8 -26 -12 -42 -10 -15 2 -22 1 -15 -1 14 -5 17
-33 3 -33 -5 0 -16 -3 -24 -6 -18 -7 -31 27 -22 56 5 16 12 19 28 15 17 -5 19
-4 7 4 -8 6 -25 11 -37 11 -12 0 -25 5 -29 11 -7 12 -5 12 88 -16z m-82 -32
c0 -20 -13 -15 -33 12 l-18 25 26 -12 c14 -6 25 -17 25 -25z m-490 2 c8 -9 8
-15 2 -15 -6 0 -13 6 -15 13 -4 9 -8 8 -16 -3 -6 -8 -11 -10 -11 -4 0 26 22
31 40 9z m350 -5 c0 -5 -5 -10 -11 -10 -5 0 -7 5 -4 10 3 6 8 10 11 10 2 0 4
-4 4 -10z m390 -11 c12 -7 10 -8 -7 -9 -12 0 -28 -3 -37 -6 -10 -4 -16 -1 -16
9 0 9 -8 18 -17 20 -10 2 0 2 22 -1 22 -2 47 -8 55 -13z m-657 4 c-7 -2 -19
-2 -25 0 -7 3 -2 5 12 5 14 0 19 -2 13 -5z m755 -33 c2 0 -12 -11 -32 -25 -41
-28 -61 -34 -30 -9 17 14 17 15 1 10 -11 -3 -16 -2 -12 4 3 6 18 10 33 11 27
0 27 0 4 10 -13 5 -27 7 -31 4 -4 -2 -8 2 -8 10 0 12 5 12 35 -1 19 -8 37 -14
40 -14z m-168 -30 c0 -5 -6 -10 -14 -10 -23 0 -27 -40 -5 -48 18 -7 18 -8 -1
-20 -16 -9 -18 -9 -14 2 6 16 -30 28 -44 14 -14 -14 -32 -1 -32 21 0 18 16 27
75 41 17 4 31 8 33 9 1 0 2 -3 2 -9z m80 -20 c0 -5 -14 -17 -30 -25 -23 -12
-35 -13 -48 -5 -15 10 -15 11 3 6 19 -6 19 -5 2 8 -18 14 -18 14 0 19 33 9 73
7 73 -3z m-800 -40 c0 -22 -4 -40 -10 -40 -5 0 -10 18 -10 40 0 22 5 40 10 40
6 0 10 -18 10 -40z m654 -39 c-15 -13 -160 -61 -184 -61 -12 0 -30 -5 -41 -10
-13 -7 -19 -7 -19 0 0 5 -9 10 -20 10 -28 0 -42 30 -22 49 11 12 16 13 20 3 5
-16 84 -16 101 1 11 10 12 9 6 -2 -6 -11 -4 -13 8 -8 48 20 52 20 32 4 -17
-14 -17 -16 -4 -17 9 0 22 7 29 15 6 8 19 14 28 13 43 -3 62 3 63 20 0 11 2
13 6 4 3 -8 1 -17 -3 -21z m-331 -12 c-15 -14 -64 -18 -91 -7 l-27 11 30 6
c38 8 99 1 88 -10z m-153 1 c0 -9 -14 -12 -60 -12 -29 0 -32 1 -25 12 3 6 24
10 46 10 21 0 39 -4 39 -10z m46 -52 c4 -6 0 -14 -7 -19 -10 -6 -4 -9 18 -9
25 0 31 4 27 15 -5 12 3 15 35 15 23 0 41 -4 41 -10 0 -5 8 -11 18 -11 39 -3
-78 -18 -133 -17 -63 1 -98 -11 -113 -39 -8 -13 -9 -9 -8 17 1 19 8 36 16 38
13 4 13 3 2 -11 -11 -13 -10 -15 7 -10 12 3 18 10 14 16 -4 6 0 8 10 4 12 -4
18 0 23 17 4 17 11 22 25 19 11 -3 22 -10 25 -15z m-371 -67 c-3 -11 -1 -22 5
-26 20 -13 -24 -117 -46 -108 -8 3 -14 0 -14 -7 0 -6 -7 -18 -15 -26 -8 -9
-15 -28 -15 -43 0 -15 -5 -32 -10 -37 -14 -14 -2 -44 16 -44 10 0 13 -7 8 -24
-4 -16 -1 -25 10 -29 11 -5 23 10 46 57 16 35 37 67 46 70 8 3 12 10 9 16 -9
15 -27 12 -20 -2 4 -7 -1 -4 -9 6 -12 14 -13 23 -5 33 13 15 53 18 44 3 -9
-14 17 -71 30 -67 5 2 11 22 13 44 2 36 0 41 -21 47 -24 6 -24 6 -12 71 13 67
25 95 25 58 0 -12 5 -23 12 -25 6 -2 11 -19 10 -38 0 -19 5 -38 11 -43 8 -6 6
-7 -5 -3 -22 7 -24 -17 -3 -34 11 -9 12 -16 5 -25 -8 -9 -7 -14 1 -17 17 -6 5
-48 -21 -75 -11 -13 -25 -34 -30 -49 -6 -15 -13 -24 -17 -20 -7 7 16 57 32 68
5 4 6 10 3 13 -4 4 -15 1 -25 -6 -14 -10 -19 -27 -19 -59 -1 -46 -20 -100 -36
-100 -5 0 -7 -4 -4 -8 2 -4 1 -14 -5 -22 -6 -10 -9 -11 -9 -2 0 6 -5 12 -11
12 -6 0 -8 -7 -5 -16 12 -31 -65 -125 -93 -116 -8 3 -11 0 -8 -5 6 -10 -22
-41 -52 -58 -9 -5 -12 -4 -7 3 7 11 -13 17 -38 13 -5 -1 -4 4 2 12 7 8 9 16 6
19 -3 3 -1 9 5 13 6 3 11 1 11 -4 0 -6 10 -11 21 -11 18 0 19 -2 9 -15 -19
-23 4 -18 25 5 10 11 13 20 7 20 -7 0 -12 5 -12 11 0 5 4 8 10 4 5 -3 8 6 6
23 -4 27 -2 28 35 26 23 -1 43 4 50 13 9 11 9 12 -3 8 -11 -4 -15 2 -16 24 0
17 4 34 10 37 6 4 8 -2 4 -17 -7 -23 -7 -23 8 -5 19 24 20 43 4 79 -9 18 -21
27 -36 27 -19 0 -22 4 -17 20 4 13 0 31 -10 46 -10 15 -13 33 -9 46 4 14 2 18
-5 14 -21 -13 -11 23 19 71 17 26 30 41 30 35 0 -10 5 -10 23 0 12 7 25 12 28
11 3 -1 6 5 6 13 0 8 -3 14 -7 14 -12 0 -4 54 11 78 17 27 22 28 14 3z m185
-40 c0 -5 3 -18 6 -28 5 -15 4 -16 -6 -3 -8 10 -10 11 -8 2 4 -17 23 -16 24 1
1 6 2 18 3 25 1 15 31 16 31 1 0 -5 -5 -7 -11 -4 -6 4 -10 1 -9 -6 4 -28 -12
-60 -27 -54 -10 3 -13 1 -10 -9 4 -9 1 -13 -6 -10 -16 6 -19 44 -6 61 6 6 8
17 4 23 -3 5 -1 10 4 10 6 0 11 -4 11 -9z m-220 -54 c0 -5 -4 -5 -10 -2 -5 3
-10 14 -10 23 0 15 2 15 10 2 5 -8 10 -19 10 -23z m-2863 -41 c6 -6 -65 -26
-92 -26 -17 0 -17 2 -5 10 10 7 -7 9 -55 8 -48 -1 -56 -3 -27 -5 28 -3 42 -9
42 -19 0 -8 -9 -14 -19 -14 -11 0 -22 -4 -25 -9 -3 -4 14 -4 39 2 30 7 57 7
87 -1 24 -6 31 -10 16 -8 -16 2 -28 -1 -28 -7 0 -9 95 -2 135 11 16 5 13 7
-15 13 -19 3 21 5 90 4 73 -2 117 0 105 5 -24 10 -1 13 33 3 18 -4 21 -8 10
-15 -8 -6 0 -7 26 -3 29 5 37 3 34 -7 -4 -9 -30 -13 -101 -13 -52 0 -87 3 -76
7 29 11 23 14 -22 10 -29 -3 -39 -8 -35 -18 3 -8 0 -14 -7 -15 -30 -2 43 -17
90 -18 28 -1 54 -5 58 -10 3 -5 22 -7 41 -4 28 5 39 2 46 -10 5 -10 19 -17 30
-17 12 0 18 -3 15 -6 -4 -4 -27 -2 -52 5 -25 6 -64 16 -87 22 -24 5 -131 14
-238 18 -184 7 -188 8 -67 9 71 1 126 6 123 11 -3 4 -48 6 -100 3 -117 -6
-186 3 -186 25 0 12 -7 14 -33 10 -27 -4 -33 -2 -34 13 -3 39 37 49 186 44 51
-1 95 -5 98 -8z m50 8 c-3 -3 -12 -4 -19 -1 -8 3 -5 6 6 6 11 1 17 -2 13 -5z
m163 -16 c0 -14 -16 -15 -65 -3 l-50 13 57 -2 c32 0 58 -4 58 -8z m-510 -13
c0 -8 -5 -15 -11 -15 -5 0 -7 5 -4 10 8 13 1 13 -68 -1 -31 -7 -57 -16 -57
-21 0 -6 7 -8 15 -4 8 3 25 1 37 -4 19 -7 14 -9 -24 -9 -27 -1 -48 3 -48 8 0
4 -12 6 -27 3 l-28 -6 25 -7 c23 -6 23 -7 -7 -8 -50 -2 -39 17 20 34 130 37
177 42 177 20z m625 -1 c39 -8 79 -17 90 -19 94 -16 224 -60 205 -68 -8 -4 -1
-5 15 -2 17 2 44 -2 60 -10 27 -12 28 -13 7 -14 -13 -1 -20 -5 -17 -11 4 -6
-6 -7 -25 -4 -17 4 -30 3 -29 -2 3 -14 -12 -44 -23 -44 -5 0 -6 5 -2 11 5 8 2
9 -11 2 -13 -8 -27 -5 -52 9 -18 11 -33 21 -33 23 0 1 23 1 50 -1 37 -2 59 2
81 15 l31 19 -53 -2 c-29 -2 -55 -8 -57 -14 -2 -7 -10 -12 -18 -12 -9 0 -12 5
-9 10 9 15 -13 12 -40 -6 -14 -9 -33 -13 -47 -9 -20 5 -21 4 -5 -5 9 -6 27 -8
38 -5 16 5 19 4 14 -5 -5 -8 -4 -11 2 -7 11 7 78 -31 69 -40 -3 -3 -11 -1 -19
5 -7 6 -44 20 -82 31 -39 11 -63 20 -55 21 9 0 6 6 -10 14 -14 8 -28 12 -31
10 -4 -2 -10 3 -13 12 -3 8 -2 13 3 9 5 -3 17 3 27 12 16 17 16 18 -7 24 -23
7 -23 7 4 8 15 1 27 -3 27 -9 0 -5 9 -10 20 -10 11 0 20 6 20 14 0 8 -8 15
-17 15 -24 0 -212 49 -193 50 8 1 47 -6 85 -15z m2732 -2 c-10 -10 -17 -25
-17 -32 0 -10 -3 -11 -10 -4 -14 14 -3 42 18 47 10 3 19 5 21 6 2 0 -3 -7 -12
-17z m-2922 -2 c3 -5 -3 -10 -14 -10 -12 0 -21 5 -21 10 0 6 6 10 14 10 8 0
18 -4 21 -10z m-450 -20 c13 -5 14 -9 5 -9 -8 0 -24 4 -35 9 -13 5 -14 9 -5 9
8 0 24 -4 35 -9z m3155 -31 c0 -5 -4 -9 -10 -9 -5 0 -10 7 -10 16 0 8 5 12 10
9 6 -3 10 -10 10 -16z m-3395 4 c-23 -6 104 -53 145 -53 14 0 31 -4 38 -9 21
-13 -49 -23 -84 -12 -16 5 -47 12 -68 16 -29 5 -36 9 -25 16 20 13 2 11 -23
-2 -20 -11 -20 -12 11 -25 18 -8 30 -18 26 -24 -8 -13 5 -13 25 0 12 8 12 10
1 10 -8 0 -12 3 -8 6 3 3 21 3 39 -1 l33 -8 -44 -13 c-33 -10 -48 -10 -62 -1
-11 7 -19 15 -19 18 0 4 -9 9 -20 12 -24 6 -27 37 -3 37 9 0 13 3 10 6 -4 4
-28 1 -53 -6 -39 -11 -44 -15 -28 -22 13 -6 9 -7 -13 -3 -34 5 -39 0 -24 -23
6 -10 18 -11 49 -4 32 8 39 7 35 -4 -3 -9 2 -11 19 -7 23 5 23 5 3 -10 -11 -9
-28 -17 -38 -17 -10 0 -25 -7 -33 -15 -17 -16 -49 -21 -39 -5 3 5 -14 2 -39
-7 -25 -10 -49 -14 -53 -9 -10 10 17 26 45 26 13 0 21 4 18 9 -3 4 -18 6 -32
3 -19 -3 -25 -1 -20 7 10 15 63 14 69 -1 2 -7 8 -10 12 -6 4 4 5 15 1 24 -5
13 -14 15 -43 9 -54 -10 -80 -25 -62 -36 8 -5 10 -9 4 -9 -5 0 -16 4 -24 9
-11 7 0 16 40 37 80 41 211 92 234 92 l20 0 -20 -5z m300 -3 c-11 -5 -40 -8
-65 -8 -45 1 -45 1 -10 8 19 4 49 8 65 8 25 0 27 -1 10 -8z m-91 -35 c-4 -8
-12 -15 -20 -15 -8 0 -11 6 -8 15 4 8 12 15 20 15 8 0 11 -6 8 -15z m141 5
c14 -6 2 -8 -40 -8 -52 1 -55 2 -25 8 46 10 42 10 65 0z m2947 -12 c-18 -18
-15 -27 8 -21 26 7 26 -10 -1 -46 -15 -20 -29 -28 -45 -26 -18 2 -24 -3 -24
-16 0 -11 -4 -19 -10 -19 -5 0 -10 4 -10 9 0 16 74 131 85 131 5 0 4 -5 -3
-12z m-1899 -64 c77 -32 108 -54 77 -54 -5 0 -10 -4 -10 -10 0 -14 27 -12 34
3 3 8 12 4 27 -13 13 -14 20 -18 16 -9 -5 14 5 12 54 -9 32 -14 59 -29 59 -34
0 -11 -17 -10 -25 1 -3 6 -18 6 -35 1 -34 -10 -35 -10 -51 -10 -6 0 -9 -10 -7
-22 2 -19 9 -23 38 -23 19 0 48 4 63 9 18 5 32 5 39 -2 8 -8 5 -9 -9 -6 -12 3
-24 1 -27 -5 -4 -6 -1 -11 6 -11 7 0 2 -6 -12 -13 -14 -8 -24 -19 -22 -26 2
-9 -3 -9 -17 -1 -31 16 -36 12 -12 -9 19 -17 26 -18 44 -8 12 7 24 15 27 18 3
4 16 10 28 14 18 5 29 1 43 -14 11 -12 27 -21 35 -21 11 0 14 -11 13 -45 -2
-25 -6 -45 -11 -45 -11 0 -51 23 -59 33 -3 5 -8 8 -10 6 -7 -4 -92 37 -152 74
-45 27 -53 35 -34 34 14 -1 23 -5 21 -9 -5 -8 79 1 86 9 3 3 -12 3 -32 0 -25
-4 -40 -1 -49 9 -6 7 -15 11 -20 8 -5 -3 -9 1 -9 8 0 9 -3 9 -10 -2 -9 -13
-10 -13 -10 0 0 13 -1 13 -10 0 -8 -13 -10 -13 -10 1 0 9 -6 16 -12 17 -7 1
-24 4 -38 6 -14 2 -32 5 -40 5 -9 1 -5 6 10 14 26 14 54 11 44 -4 -3 -6 8 -7
26 -4 17 3 29 2 26 -3 -3 -5 5 -7 17 -5 13 3 29 14 36 26 14 21 14 21 -14 3
-15 -10 -24 -13 -20 -6 4 7 -1 13 -14 17 -12 3 -21 12 -21 19 0 8 -9 14 -20
14 -11 0 -20 5 -20 10 0 6 9 10 20 10 26 0 26 17 -1 25 -35 12 -69 -13 -69
-51 0 -18 6 -35 13 -38 6 -4 -4 -4 -24 -2 -20 2 -78 23 -130 45 -52 23 -79 39
-61 36 18 -4 32 -2 32 3 0 5 9 12 19 15 14 3 18 1 14 -9 -3 -8 0 -14 7 -14 7
0 10 -7 6 -15 -3 -9 0 -15 10 -15 9 0 12 5 8 12 -5 7 -2 9 7 6 20 -8 37 14 28
37 -10 26 -11 55 -1 55 4 0 46 -16 95 -36z m-116 -21 c-3 -3 -11 -2 -17 2 -9
6 -9 10 1 16 14 8 27 -7 16 -18z m-1567 -4 c12 -8 10 -9 -7 -4 -18 5 -22 3
-17 -9 3 -9 10 -16 15 -16 6 0 4 -6 -3 -14 -14 -14 -38 -11 -38 6 0 6 7 8 14
5 10 -4 13 -1 10 8 -3 8 -13 11 -22 8 -13 -4 -12 -2 3 10 24 19 26 20 45 6z
m247 -5 c-3 -3 -12 -4 -19 -1 -8 3 -5 6 6 6 11 1 17 -2 13 -5z m-122 -24 c-3
-5 -12 -10 -20 -10 -8 0 -21 -10 -29 -22 -9 -12 -16 -18 -16 -13 0 15 13 31
35 43 25 14 38 15 30 2z m54 6 c-15 -13 -99 -54 -94 -46 7 11 75 49 89 50 5 0
7 -2 5 -4z m-255 -22 c-16 -13 -16 -15 -1 -10 19 6 24 -9 5 -18 -7 -3 -1 -4
14 -1 21 4 31 0 40 -15 7 -11 20 -20 28 -20 8 0 -7 -11 -33 -25 -26 -14 -52
-23 -57 -20 -6 3 -10 0 -10 -7 0 -13 -71 -55 -94 -56 -5 0 -12 -5 -15 -10 -8
-13 -38 8 -41 28 -5 36 3 57 33 80 20 17 29 20 25 9 -6 -14 -3 -14 28 0 38 17
46 36 12 26 -22 -6 -22 -5 -3 6 11 7 29 21 39 31 11 10 27 18 35 18 11 0 10
-4 -5 -16z m3571 -29 c3 -22 -5 -30 -27 -26 -12 2 -9 -17 3 -21 7 -2 7 -11 0
-28 -9 -23 -10 -24 -10 -3 -1 12 -5 23 -11 25 -5 2 0 22 12 45 23 46 29 47 33
8z m-3481 7 c3 -5 -1 -9 -9 -9 -8 0 -12 4 -9 9 3 4 7 8 9 8 2 0 6 -4 9 -8z
m3554 -9 c2 -8 -5 -13 -17 -13 -12 0 -21 6 -21 16 0 18 31 15 38 -3z m-3521
-19 c-3 -3 -12 -4 -19 -1 -8 3 -5 6 6 6 11 1 17 -2 13 -5z m1974 -40 c30 -15
56 -30 59 -33 3 -4 20 -14 39 -22 18 -8 54 -23 79 -34 l45 -21 -52 -2 c-33 -1
-50 2 -46 8 3 6 18 8 33 5 23 -4 23 -3 -7 10 -18 9 -36 14 -39 11 -3 -4 0 -6
8 -6 10 0 10 -3 0 -15 -7 -8 -19 -15 -27 -15 -12 0 -13 3 -3 14 9 12 7 18 -10
33 -12 10 -28 24 -36 31 -8 7 -19 10 -24 7 -19 -12 -60 4 -54 20 4 9 0 15 -9
15 -9 0 -19 5 -22 10 -10 16 8 12 66 -16z m1470 -25 c-5 -13 -10 -19 -10 -12
-1 15 10 45 15 40 3 -2 0 -15 -5 -28z m-54 -1 c-3 -8 -6 -5 -6 6 -1 11 2 17 5
13 3 -3 4 -12 1 -19z m4 -21 c15 4 19 0 19 -18 0 -19 -2 -21 -10 -9 -6 10 -10
11 -10 3 0 -7 -6 -13 -14 -13 -8 0 -16 -7 -20 -15 -3 -8 -2 -15 2 -15 4 0 8
-16 9 -36 1 -30 0 -34 -13 -23 -15 12 -15 50 1 94 6 16 3 15 -13 -5 -12 -14
-19 -27 -16 -29 2 -2 -2 -11 -8 -19 -10 -11 -9 -16 5 -23 19 -11 24 -49 6 -49
-5 0 -8 4 -5 9 3 4 -3 16 -13 25 -16 15 -19 15 -24 1 -4 -8 -2 -15 3 -15 6 0
10 -4 10 -9 0 -5 -9 -7 -19 -4 -18 5 -18 6 -3 34 10 16 20 29 25 29 4 0 7 5 7
11 0 20 55 100 58 85 2 -8 11 -12 23 -9z m99 -2 c0 -8 7 -15 15 -15 8 0 15 -9
15 -20 0 -11 -7 -20 -15 -20 -8 0 -15 9 -15 19 0 11 -9 23 -20 26 -11 3 -20
11 -20 16 0 5 9 9 20 9 11 0 20 -7 20 -15z m-1446 -50 c-4 -8 -10 -12 -15 -9
-14 8 -10 24 6 24 9 0 12 -6 9 -15z m235 -54 c59 -31 124 -59 154 -67 21 -5
25 -9 15 -15 -7 -5 -8 -9 -3 -10 6 0 -1 -5 -15 -9 -18 -6 -11 -7 27 -6 47 1
50 2 30 14 -12 7 -14 11 -5 8 9 -3 34 -8 55 -12 l38 -8 -30 -7 c-46 -10 -140
-10 -151 1 -6 6 -15 6 -24 0 -13 -9 -13 -10 0 -11 10 0 8 -3 -5 -9 -19 -8 -19
-9 3 -9 12 -1 22 -6 22 -12 0 -6 -9 -8 -22 -3 -13 4 -28 7 -34 7 -12 0 -13 22
-1 33 14 14 6 21 -18 16 -20 -3 -25 0 -25 17 0 27 28 28 76 0 34 -19 38 -19
53 -4 15 15 14 16 -11 10 -19 -5 -29 -2 -35 10 -9 16 -115 65 -140 65 -7 0
-13 5 -13 10 0 15 18 12 59 -9z m-45 -20 c4 -5 0 -12 -6 -14 -7 -3 -4 -6 7 -7
14 -1 9 -6 -17 -17 -21 -8 -38 -19 -38 -23 0 -9 79 -40 102 -40 9 0 20 -5 24
-11 4 -8 -1 -9 -17 -5 -22 7 -23 6 -6 -7 10 -8 38 -18 62 -22 25 -3 47 -11 51
-16 3 -6 10 -6 17 -1 7 5 27 9 45 9 24 0 32 -5 32 -18 0 -14 12 -19 58 -24 31
-3 68 -8 82 -11 17 -3 21 -2 11 4 -8 6 -9 12 -3 16 6 3 12 2 14 -3 1 -5 39
-11 83 -14 75 -6 77 -5 21 3 -62 10 -85 20 -47 20 12 0 19 4 16 10 -3 6 1 7
10 4 8 -4 21 -2 28 4 7 6 51 7 112 2 l100 -7 -75 -2 c-41 -2 -97 -6 -125 -10
l-50 -7 77 -8 c153 -15 132 -24 -52 -21 -115 2 -215 10 -265 20 -97 19 -246
66 -239 76 5 8 -27 22 -34 14 -3 -3 1 -5 8 -5 7 0 11 -3 7 -6 -3 -3 -20 1 -39
10 -18 8 -64 29 -102 45 -38 17 -67 34 -64 37 3 3 22 -4 42 -16 45 -25 61 -26
23 -2 l-28 19 53 2 c29 1 55 5 58 10 12 18 56 26 64 12z m41 -11 c3 -5 2 -10
-4 -10 -5 0 -13 5 -16 10 -3 6 -2 10 4 10 5 0 13 -4 16 -10z m1138 -16 c9 -9
-12 -27 -60 -51 -30 -16 -40 -18 -37 -8 3 8 13 16 22 18 20 6 -40 -1 -85 -9
-18 -4 -30 -11 -27 -18 2 -6 -8 -12 -26 -13 -18 -1 -28 2 -25 7 8 12 8 12 -34
0 -25 -7 -32 -7 -24 1 7 7 30 12 52 13 25 0 35 4 26 8 -13 8 -43 3 -115 -18
-55 -15 -9 7 59 29 61 20 71 21 66 8 -3 -9 3 -5 13 8 17 21 25 23 73 18 30 -3
63 -1 74 3 25 11 40 12 48 4z m-117 -66 c-3 -24 -27 -31 -33 -10 -3 6 2 12 11
12 9 0 16 5 16 10 0 6 2 10 5 10 3 0 3 -10 1 -22z m-562 -18 c6 -6 -2 -13 -18
-20 -35 -13 -63 -13 -72 1 -3 6 -22 9 -40 7 -31 -4 -45 8 -28 24 9 9 148 -2
158 -12z m341 -10 c8 0 15 -4 15 -10 0 -5 -4 -10 -9 -10 -6 0 -13 5 -16 10 -3
6 -45 11 -93 11 l-87 2 80 11 c63 9 82 9 88 -1 4 -7 15 -13 22 -13z m90 0 c3
-5 -1 -10 -9 -10 -8 0 -18 5 -21 10 -3 6 1 10 9 10 8 0 18 -4 21 -10z m-362
-7 c-7 -2 -19 -2 -25 0 -7 3 -2 5 12 5 14 0 19 -2 13 -5z m424 -9 c-16 -9 -34
-13 -40 -10 -7 2 -3 5 8 5 15 1 16 4 7 10 -9 5 -2 8 20 9 l33 1 -28 -15z
m-274 -11 c-13 -2 -33 -2 -45 0 -13 2 -3 4 22 4 25 0 35 -2 23 -4z m207 -13
c-8 -5 -19 -10 -25 -10 -5 0 -3 5 5 10 8 5 20 10 25 10 6 0 3 -5 -5 -10z
m-103 -6 c-3 -3 -12 -4 -19 -1 -8 3 -5 6 6 6 11 1 17 -2 13 -5z m-474 -21 c-7
-2 -19 -2 -25 0 -7 3 -2 5 12 5 14 0 19 -2 13 -5z m254 1 c-3 -3 -12 -4 -19
-1 -8 3 -5 6 6 6 11 1 17 -2 13 -5z m116 -6 c-17 -8 -29 -8 -45 0 -20 9 -18
11 22 11 40 0 42 -2 23 -11z m90 -5 c-7 -2 -21 -2 -30 0 -10 3 -4 5 12 5 17 0
24 -2 18 -5z"/>
<path d="M7520 3960 c0 -5 5 -10 11 -10 5 0 7 5 4 10 -3 6 -8 10 -11 10 -2 0
-4 -4 -4 -10z"/>
<path d="M7360 3882 c0 -7 -19 -13 -47 -14 l-48 -1 44 -4 c41 -4 73 9 58 24
-4 3 -7 1 -7 -5z"/>
<path d="M7520 3830 c0 -33 3 -40 20 -40 21 0 27 30 14 64 -13 33 -34 17 -34
-24z"/>
<path d="M7528 3704 c-5 -4 -8 -28 -8 -53 0 -32 3 -42 11 -34 5 5 9 29 7 53
-2 23 -6 38 -10 34z"/>
<path d="M6714 3556 c-3 -21 -4 -39 -1 -42 2 -3 8 11 11 32 4 20 5 38 2 41 -2
3 -8 -11 -12 -31z"/>
<path d="M7120 3540 c0 -5 18 -10 40 -10 22 0 40 5 40 10 0 6 -18 10 -40 10
-22 0 -40 -4 -40 -10z"/>
<path d="M6676 3522 c-4 -7 -15 -12 -26 -12 -20 0 -35 -26 -19 -35 5 -4 8 -2
7 3 -2 6 0 10 5 11 4 1 7 -1 7 -4 0 -3 0 -10 0 -16 0 -5 -10 -9 -22 -7 -30 4
-34 -19 -3 -24 14 -3 25 -1 25 4 0 5 15 16 33 24 19 9 23 13 10 10 -25 -5 -29
4 -12 21 6 6 9 17 7 24 -3 10 -6 10 -12 1z"/>
<path d="M7054 3505 c8 -8 18 -15 22 -15 3 0 1 7 -6 15 -7 8 -17 15 -22 15 -5
0 -3 -7 6 -15z"/>
<path d="M7043 3440 c0 -20 3 -26 9 -18 6 10 8 10 8 0 0 -15 -47 -35 -61 -26
-16 9 -36 -14 -36 -41 0 -20 1 -22 14 -10 7 8 20 12 28 9 8 -4 15 -2 15 4 0
13 -29 24 -43 15 -7 -3 -8 -2 -4 3 11 11 58 13 51 2 -13 -20 17 -5 35 19 20
25 21 27 4 47 -10 12 -18 22 -19 24 0 1 -1 -12 -1 -28z"/>
<path d="M7520 3430 c0 -22 5 -40 10 -40 6 0 10 18 10 40 0 22 -4 40 -10 40
-5 0 -10 -18 -10 -40z"/>
<path d="M6690 3415 c-12 -14 -11 -18 1 -26 20 -12 34 -6 34 16 0 24 -19 30
-35 10z"/>
<path d="M6605 3413 c-11 -3 -29 -12 -40 -20 -19 -13 -18 -14 10 -8 54 12 65
16 65 26 0 10 -3 10 -35 2z"/>
<path d="M6875 3390 c-3 -6 1 -7 9 -4 18 7 21 14 7 14 -6 0 -13 -4 -16 -10z"/>
<path d="M6870 3274 c0 -8 5 -12 10 -9 6 4 8 11 5 16 -9 14 -15 11 -15 -7z"/>
<path d="M7440 3233 c-48 -3 -57 -7 -67 -30 -16 -33 -17 -133 -2 -133 5 0 7
-6 3 -12 -6 -10 -4 -10 7 0 16 14 33 16 24 2 -4 -6 1 -7 12 -3 16 6 16 5 4
-10 -7 -9 -9 -17 -3 -17 5 0 15 7 22 15 9 11 9 15 1 15 -7 0 -9 5 -6 11 4 6
14 8 22 5 11 -5 13 -1 8 15 -5 14 -3 19 3 15 6 -3 13 -2 16 3 3 5 -1 12 -10
15 -9 4 -18 5 -18 4 -1 -2 -7 -16 -14 -31 -15 -36 -32 -26 -32 19 0 46 30 79
63 70 19 -4 24 -11 22 -31 -2 -14 -1 -25 2 -25 14 0 28 29 27 55 -1 48 -3 55
-16 53 -7 -1 -38 -3 -68 -5z"/>
<path d="M6840 3199 c0 -5 5 -7 10 -4 6 3 10 8 10 11 0 2 -4 4 -10 4 -5 0 -10
-5 -10 -11z"/>
<path d="M6820 3170 c0 -5 5 -10 10 -10 6 0 10 5 10 10 0 6 -4 10 -10 10 -5 0
-10 -4 -10 -10z"/>
<path d="M6560 3110 c0 -40 0 -40 39 -40 31 0 41 -4 46 -20 7 -23 25 -27 25
-6 0 8 -7 16 -15 20 -10 3 -15 19 -15 46 l0 40 -40 0 -40 0 0 -40z"/>
<path d="M6714 3112 c-4 -18 -13 -32 -20 -32 -17 0 -18 -17 -2 -22 9 -3 4 -16
-15 -41 -30 -40 -37 -68 -9 -41 9 10 17 20 17 23 1 3 15 21 33 40 33 34 40 51
22 51 -5 0 -10 -7 -10 -15 0 -8 -5 -15 -11 -15 -5 0 -2 13 8 30 13 23 15 32 5
42 -9 9 -13 5 -18 -20z"/>
<path d="M7040 3087 c0 -8 -8 -18 -17 -20 -17 -4 -17 -5 0 -6 18 -1 35 25 23
36 -3 4 -6 -1 -6 -10z"/>
<path d="M6943 3014 c-6 -13 -7 -24 -3 -24 9 0 25 39 18 45 -2 2 -8 -7 -15
-21z"/>
<path d="M6962 2739 l-3 -69 41 0 40 0 0 46 c0 37 -3 45 -15 40 -10 -4 -15 1
-16 17 l0 22 -9 -22 c-5 -13 -15 -23 -21 -23 -8 0 -8 4 -1 13 7 8 7 17 -1 28
-10 13 -13 3 -15 -52z"/>
<path d="M7397 2803 c-4 -3 -7 -19 -7 -35 0 -16 -3 -27 -7 -25 -5 3 -8 -8 -8
-23 0 -15 3 -26 8 -23 4 2 7 13 7 24 0 10 5 19 10 19 6 0 8 10 4 24 -4 17 0
27 13 35 15 8 15 10 2 11 -9 0 -19 -3 -22 -7z"/>
<path d="M6686 2755 c-9 -19 -26 -41 -37 -49 -13 -9 -16 -16 -10 -21 18 -10
13 -43 -8 -54 -10 -6 -21 -20 -24 -31 -6 -22 8 -25 74 -14 l37 6 -2 62 -1 62
-19 -23 c-28 -37 -29 -21 -1 35 27 55 29 62 16 62 -5 0 -16 -16 -25 -35z m-46
-155 c0 -5 -5 -10 -11 -10 -5 0 -7 5 -4 10 3 6 8 10 11 10 2 0 4 -4 4 -10z"/>
<path d="M7109 2772 c11 -8 11 -10 0 -15 -9 -3 -5 -6 9 -7 12 -2 28 -3 35 -4
6 -1 17 1 22 5 6 4 19 9 30 12 11 3 0 5 -25 4 -25 0 -54 3 -65 7 -14 6 -16 5
-6 -2z"/>
<path d="M6880 2761 c0 -5 -8 -12 -17 -14 -15 -4 -15 -5 -2 -6 9 0 22 6 29 14
9 10 9 15 1 15 -6 0 -11 -4 -11 -9z"/>
<path d="M7065 2760 c-3 -5 -2 -10 4 -10 5 0 13 5 16 10 3 6 2 10 -4 10 -5 0
-13 -4 -16 -10z"/>
<path d="M7280 2619 c0 -11 4 -18 10 -14 5 3 7 12 3 20 -7 21 -13 19 -13 -6z"/>
<path d="M6580 2608 c0 -19 2 -20 10 -8 13 19 13 30 0 30 -5 0 -10 -10 -10
-22z"/>
<path d="M7231 2581 c-17 -30 -13 -66 8 -92 20 -24 20 -24 35 -4 19 25 19 33
1 69 -17 33 -20 48 -4 26 9 -13 10 -13 6 0 -6 23 -34 24 -46 1z"/>
<path d="M7210 2482 c0 -15 18 -34 29 -31 7 3 3 11 -9 21 -11 10 -20 14 -20
10z"/>
<path d="M7040 2420 c0 -5 7 -10 15 -10 8 0 15 5 15 10 0 6 -7 10 -15 10 -8 0
-15 -4 -15 -10z"/>
<path d="M6472 2390 c0 -14 2 -19 5 -12 2 6 2 18 0 25 -3 6 -5 1 -5 -13z"/>
<path d="M6361 2328 c-11 -18 -10 -23 6 -40 19 -19 20 -19 18 16 -1 44 -7 51
-24 24z m19 -13 c0 -8 -4 -15 -10 -15 -5 0 -7 7 -4 15 4 8 8 15 10 15 2 0 4
-7 4 -15z"/>
<path d="M6878 2274 c-18 -17 -5 -24 45 -25 95 0 102 -1 114 -11 7 -6 10 -15
6 -21 -3 -6 -1 -7 5 -3 8 5 9 13 2 25 -5 10 -6 21 -3 25 3 3 -16 6 -43 6 -27
0 -65 3 -84 6 -19 3 -38 2 -42 -2z"/>
<path d="M6948 2215 c-3 -3 -22 -6 -42 -7 -57 -2 -42 -16 22 -20 81 -5 103 1
62 18 -37 16 -35 16 -42 9z"/>
<path d="M6880 2171 c0 -10 76 -9 86 2 4 4 -14 7 -39 7 -26 0 -47 -4 -47 -9z"/>
<path d="M6977 2166 c-9 -7 -35 -16 -57 -20 -22 -3 -40 -11 -40 -17 0 -7 7 -8
18 -4 9 4 31 11 48 15 37 9 87 40 64 40 -8 0 -23 -7 -33 -14z"/>
<path d="M6840 2110 c0 -5 7 -10 15 -10 8 0 15 5 15 10 0 6 -7 10 -15 10 -8 0
-15 -4 -15 -10z"/>
<path d="M6754 2103 c4 -8 1 -13 -8 -13 -9 0 -16 -4 -16 -8 0 -5 14 -7 30 -4
17 2 30 5 28 6 -2 1 -12 8 -22 16 -13 10 -17 10 -12 3z"/>
<path d="M7070 3268 c-12 -22 -12 -22 6 -6 10 10 15 20 12 24 -4 3 -12 -5 -18
-18z"/>
<path d="M6135 2960 c-3 -5 -1 -10 4 -10 6 0 11 5 11 10 0 6 -2 10 -4 10 -3 0
-8 -4 -11 -10z"/>
<path d="M6370 2805 c0 -5 5 -17 10 -25 5 -8 10 -10 10 -5 0 6 -5 17 -10 25
-5 8 -10 11 -10 5z"/>
<path d="M5986 2763 c-6 -14 -5 -15 5 -6 7 7 10 15 7 18 -3 3 -9 -2 -12 -12z"/>
<path d="M5980 2730 c0 -5 5 -10 10 -10 6 0 10 5 10 10 0 6 -4 10 -10 10 -5 0
-10 -4 -10 -10z"/>
<path d="M5901 2524 c0 -11 3 -14 6 -6 3 7 2 16 -1 19 -3 4 -6 -2 -5 -13z"/>
<path d="M6165 2399 c-4 -6 -5 -12 -2 -15 2 -3 7 2 10 11 7 17 1 20 -8 4z"/>
<path d="M6070 2366 c0 -8 4 -17 9 -20 5 -4 7 3 4 14 -6 23 -13 26 -13 6z"/>
<path d="M6100 2339 c0 -5 5 -7 10 -4 6 3 10 8 10 11 0 2 -4 4 -10 4 -5 0 -10
-5 -10 -11z"/>
<path d="M6127 2336 c-4 -10 -5 -21 -2 -24 9 -9 17 6 13 25 -3 17 -4 17 -11
-1z"/>
<path d="M5688 2366 c-3 -15 -1 -23 6 -20 12 5 16 44 5 44 -4 0 -9 -11 -11
-24z"/>
<path d="M5656 2334 c-4 -9 -4 -19 -1 -22 2 -3 7 3 11 12 4 9 4 19 1 22 -2 3
-7 -3 -11 -12z"/>
<path d="M6007 2163 c6 -16 8 -16 23 1 9 12 8 15 -8 13 -12 0 -18 -6 -15 -14z"/>
<path d="M6285 2210 c-10 -11 -13 -20 -8 -20 13 0 38 29 31 35 -3 3 -13 -4
-23 -15z"/>
<path d="M5530 2050 c0 -5 5 -10 10 -10 6 0 10 5 10 10 0 6 -4 10 -10 10 -5 0
-10 -4 -10 -10z"/>
<path d="M6240 1790 l0 -80 40 0 40 0 0 80 0 80 -40 0 -40 0 0 -80z"/>
<path d="M6560 1830 l0 -40 40 0 40 0 0 40 0 40 -40 0 -40 0 0 -40z"/>
<path d="M6805 1800 c-3 -5 -2 -17 3 -26 8 -14 10 -12 10 9 0 29 -3 33 -13 17z"/>
<path d="M5816 1483 c-6 -14 -5 -15 5 -6 7 7 10 15 7 18 -3 3 -9 -2 -12 -12z"/>
<path d="M5616 1473 c-6 -14 -5 -15 5 -6 7 7 10 15 7 18 -3 3 -9 -2 -12 -12z"/>
<path d="M5410 1111 c-6 -12 -7 -21 -1 -21 10 0 24 30 17 37 -2 3 -9 -5 -16
-16z"/>
<path d="M6135 1330 c3 -5 10 -10 16 -10 5 0 9 5 9 10 0 6 -7 10 -16 10 -8 0
-12 -4 -9 -10z"/>
<path d="M5940 1110 c-19 -6 -12 -8 30 -9 39 0 51 2 40 9 -17 11 -35 11 -70 0z"/>
<path d="M5263 860 c-3 -11 -9 -20 -14 -20 -5 0 -9 -8 -9 -17 0 -15 2 -15 13
2 17 25 28 55 21 55 -3 0 -8 -9 -11 -20z"/>
<path d="M5455 805 c0 -13 3 -21 8 -18 4 2 7 10 7 18 0 8 -3 16 -7 18 -5 3 -8
-5 -8 -18z"/>
<path d="M5367 705 c-4 -8 -2 -17 3 -20 6 -4 10 3 10 14 0 25 -6 27 -13 6z"/>
<path d="M5370 650 c-6 -11 -8 -20 -6 -20 3 0 10 9 16 20 6 11 8 20 6 20 -3 0
-10 -9 -16 -20z"/>
<path d="M5233 493 c-7 -2 -13 -8 -13 -13 0 -13 26 -19 41 -8 11 8 10 9 -5 4
-13 -5 -17 -2 -12 9 3 8 4 15 3 14 -1 0 -8 -3 -14 -6z"/>
<path d="M2193 854 c3 -3 26 -6 52 -6 26 0 49 3 53 6 3 3 -21 6 -53 6 -32 0
-56 -3 -52 -6z"/>
<path d="M2545 820 c-3 -5 -1 -10 4 -10 6 0 11 5 11 10 0 6 -2 10 -4 10 -3 0
-8 -4 -11 -10z"/>
<path d="M2990 790 c0 -5 5 -10 11 -10 5 0 7 5 4 10 -3 6 -8 10 -11 10 -2 0
-4 -4 -4 -10z"/>
<path d="M3038 783 c7 -3 16 -2 19 1 4 3 -2 6 -13 5 -11 0 -14 -3 -6 -6z"/>
<path d="M2955 775 c-5 -2 -23 -6 -40 -10 -27 -7 -28 -8 -10 -15 29 -12 30
-12 55 10 21 19 20 23 -5 15z"/>
<path d="M5161 703 c-7 -8 -10 -17 -6 -21 3 -3 10 0 15 8 8 13 10 13 10 1 0
-8 3 -12 6 -8 3 3 2 12 -3 20 -7 13 -10 13 -22 0z"/>
<path d="M3210 720 c0 -6 6 -13 14 -16 9 -3 12 -12 9 -21 -4 -11 -2 -14 5 -9
18 11 14 34 -8 46 -14 8 -20 8 -20 0z"/>
<path d="M3273 699 c9 -6 15 -14 12 -20 -3 -5 1 -6 10 -3 14 6 14 8 -2 20 -10
7 -22 13 -28 13 -5 0 -2 -4 8 -10z"/>
<path d="M3115 650 c3 -5 8 -10 11 -10 2 0 4 5 4 10 0 6 -5 10 -11 10 -5 0 -7
-4 -4 -10z"/>
<path d="M3468 603 c7 -3 16 -2 19 1 4 3 -2 6 -13 5 -11 0 -14 -3 -6 -6z"/>
<path d="M3562 444 c-14 -10 -13 -13 6 -23 24 -13 94 -15 74 -2 -7 4 -12 14
-10 22 4 17 -47 20 -70 3z m55 -20 c-3 -3 -12 -4 -19 -1 -8 3 -5 6 6 6 11 1
17 -2 13 -5z"/>
<path d="M3653 403 c-18 -7 -16 -23 2 -23 8 0 15 7 15 15 0 8 -1 15 -2 14 -2
0 -9 -3 -15 -6z"/>
<path d="M1552 589 c-13 -5 -27 -7 -32 -4 -11 7 -33 -22 -25 -35 3 -5 0 -10
-7 -11 -7 -1 -21 -2 -30 -3 -10 0 -18 -4 -18 -8 0 -5 0 -12 0 -17 0 -5 10 -7
23 -4 18 4 19 3 7 -6 -20 -14 -7 -14 25 1 15 7 24 17 21 25 -3 7 -1 13 4 13 5
0 7 7 4 15 -4 8 -1 15 4 15 6 0 13 -9 17 -19 5 -18 8 -18 35 -4 31 15 32 33 2
33 -15 0 -15 2 -2 10 19 12 3 12 -28 -1z m33 -19 l20 -9 -20 0 c-11 0 -27 4
-35 9 -13 9 -13 10 0 9 8 0 24 -4 35 -9z"/>
<path d="M1405 540 c-3 -5 1 -10 9 -10 9 0 16 5 16 10 0 6 -4 10 -9 10 -6 0
-13 -4 -16 -10z"/>
<path d="M1400 506 c7 -7 14 -6 21 1 9 9 7 12 -9 10 -14 -1 -18 -5 -12 -11z"/>
<path d="M1418 493 c-10 -3 -18 -10 -18 -17 0 -16 38 -15 44 1 6 15 -3 21 -26
16z"/>
<path d="M5096 603 c-6 -14 -5 -15 5 -6 7 7 10 15 7 18 -3 3 -9 -2 -12 -12z"/>
<path d="M3628 523 c6 -2 18 -2 25 0 6 3 1 5 -13 5 -14 0 -19 -2 -12 -5z"/>
<path d="M3771 336 c11 -9 69 -14 69 -6 0 6 -16 10 -37 10 -20 0 -34 -2 -32
-4z"/>
<path d="M5040 330 c-8 -5 -11 -12 -7 -16 4 -4 15 0 24 9 18 18 8 23 -17 7z"/>
<path d="M4140 3888 c-26 -9 -50 -48 -50 -79 0 -15 12 -41 26 -58 l26 -31
1073 0 1073 0 26 25 c34 31 36 90 5 130 l-22 27 -1069 -4 c-588 -1 -1077 -6
-1088 -10z"/>
<path d="M6823 3673 c-15 -5 -17 -23 -4 -23 5 0 11 7 15 15 3 8 4 15 3 14 -1
0 -8 -3 -14 -6z"/>
<path d="M4113 3326 c-22 -19 -28 -32 -28 -66 0 -34 6 -47 28 -66 l28 -24 794
0 793 0 31 29 c32 30 37 53 21 95 -22 58 2 56 -854 56 l-785 0 -28 -24z"/>
<path d="M4165 2801 c-37 -16 -60 -51 -60 -92 0 -46 19 -67 69 -79 55 -12
1290 -4 1314 9 10 5 25 24 32 42 18 42 4 78 -40 103 -34 20 -52 21 -665 23
-347 2 -639 -1 -650 -6z"/>
<path d="M4165 2253 c-58 -14 -77 -98 -32 -147 l22 -25 537 -3 538 -3 22 22
c32 32 30 86 -5 121 -24 23 -38 28 -110 34 -92 7 -941 8 -972 1z"/>
<path d="M6851 1814 c0 -11 3 -14 6 -6 3 7 2 16 -1 19 -3 4 -6 -2 -5 -13z"/>
</g>
</svg>
